#Comment line ignore any data following # character 
#Hierarchical Translation and Rotation (.htr) file 
[Header]	
#Header keywords are followed by a single value 
FileType HTR		#Single word string
DataType HTRS		#Translation followed by rotation and scale data
FileVersion 1		#integer
NumSegments 84		#integer
NumFrames 2		#integer
DataFrameRate 30		#integer, data frame rate in this file
EulerRotationOrder ZYX
CalibrationUnits mm
RotationUnits Degrees
GlobalAxisofGravity Y
BoneLengthAxis Y
ScaleFactor 1.00
[SegmentNames&Hierarchy]
#CHILD	PARENT
MASTER GLOBAL
root MASTER
chest root
L_mid_tent01 root
R_mid_tent01 root
spine01 root
Bip01_Neck chest
L_humerus chest
R_humerus chest
weapon_bone chest
Bip01_Head Bip01_Neck
eye_left_bone Bip01_Head
eye_right_bone Bip01_Head
L_forearm L_humerus
L_front_hand L_forearm
L_weapon_bone L_forearm
L_front_hand01_01 L_front_hand
L_front_hand02_01 L_front_hand
L_front_hand03_01 L_front_hand
L_front_hand01_02 L_front_hand01_01
L_front_hand02_02 L_front_hand02_01
L_front_hand03_02 L_front_hand03_01
R_forearm R_humerus
R_front_hand R_forearm
R_weapon_bone R_forearm
R_front_hand01_01 R_front_hand
R_front_hand02_01 R_front_hand
R_front_hand03_01 R_front_hand
R_front_hand01_02 R_front_hand01_01
R_front_hand02_02 R_front_hand02_01
R_front_hand03_02 R_front_hand03_01
null_rope01_connect L_mid_tent01
Rope1_Seg01 null_rope01_connect
Rope1_Seg02 Rope1_Seg01
Rope1_Seg03 Rope1_Seg02
Rope1_Seg04 Rope1_Seg03
Rope1_Seg05 Rope1_Seg04
Rope1_Seg06 Rope1_Seg05
Rope1_Seg07 Rope1_Seg06
Rope1_Seg09 Rope1_Seg07
L_mid_hand01 Rope1_Seg09
L_mid_hand02 Rope1_Seg09
L_mid_hand03 Rope1_Seg09
null_rope02_connect R_mid_tent01
Rope2_Seg01 null_rope02_connect
Rope2_Seg02 Rope2_Seg01
Rope2_Seg03 Rope2_Seg02
Rope2_Seg04 Rope2_Seg03
Rope2_Seg05 Rope2_Seg04
Rope2_Seg06 Rope2_Seg05
Rope2_Seg07 Rope2_Seg06
Rope2_Seg09 Rope2_Seg07
R_mid_hand01 Rope2_Seg09
R_mid_hand02 Rope2_Seg09
R_mid_hand03 Rope2_Seg09
spine02 spine01
spine03 spine02
pelvis spine03
null_rope03_connect pelvis
null_rope04_connect pelvis
Rope3_Seg01 null_rope03_connect
Rope3_Seg02 Rope3_Seg01
Rope3_Seg03 Rope3_Seg02
Rope3_Seg04 Rope3_Seg03
Rope3_Seg05 Rope3_Seg04
Rope3_Seg06 Rope3_Seg05
Rope3_Seg07 Rope3_Seg06
Rope3_Seg08 Rope3_Seg07
Rope3_Seg09 Rope3_Seg08
R_rear_hand01 Rope3_Seg09
R_rear_hand02 Rope3_Seg09
R_rear_hand03 Rope3_Seg09
Rope4_Seg01 null_rope04_connect
Rope4_Seg02 Rope4_Seg01
Rope4_Seg03 Rope4_Seg02
Rope4_Seg04 Rope4_Seg03
Rope4_Seg05 Rope4_Seg04
Rope4_Seg06 Rope4_Seg05
Rope4_Seg07 Rope4_Seg06
Rope4_Seg08 Rope4_Seg07
Rope4_Seg09 Rope4_Seg08
L_rear_hand01 Rope4_Seg09
L_rear_hand02 Rope4_Seg09
L_rear_hand03 Rope4_Seg09
[BasePosition]
#SegmentName Tx, Ty, Tz, Rx, Ry, Rz, BoneLength
MASTER 0.000000 0.000000 0.000000 -90.000000 0.000000 0.000000 10.000000 
root 0.000000 0.000000 0.000000 0.000000 0.000000 0.000000 10.000000 
chest 0.000000 0.000000 0.000000 0.000000 0.000000 0.000000 10.000000 
L_mid_tent01 0.000000 0.000000 0.000000 0.000000 0.000000 0.000000 10.000000 
R_mid_tent01 0.000000 0.000000 0.000000 0.000000 0.000000 0.000000 10.000000 
spine01 0.000000 0.000000 0.000000 0.000000 0.000000 0.000000 10.000000 
Bip01_Neck 0.000000 0.000000 0.000000 0.000000 0.000000 0.000000 10.000000 
L_humerus 0.000000 0.000000 0.000000 0.000000 0.000000 0.000000 10.000000 
R_humerus 0.000000 0.000000 0.000000 0.000000 0.000000 0.000000 10.000000 
weapon_bone 0.000000 0.000000 0.000000 0.000000 0.000000 0.000000 10.000000 
Bip01_Head 0.000000 0.000000 0.000000 0.000000 0.000000 0.000000 10.000000 
eye_left_bone 0.000000 0.000000 0.000000 0.000000 0.000000 0.000000 10.000000 
eye_right_bone 0.000000 0.000000 0.000000 0.000000 0.000000 0.000000 10.000000 
L_forearm 0.000000 0.000000 0.000000 0.000000 0.000000 0.000000 10.000000 
L_front_hand 0.000000 0.000000 0.000000 0.000000 0.000000 0.000000 10.000000 
L_weapon_bone 0.000000 0.000000 0.000000 0.000000 0.000000 0.000000 10.000000 
L_front_hand01_01 0.000000 0.000000 0.000000 0.000000 0.000000 0.000000 10.000000 
L_front_hand02_01 0.000000 0.000000 0.000000 0.000000 0.000000 0.000000 10.000000 
L_front_hand03_01 0.000000 0.000000 0.000000 0.000000 0.000000 0.000000 10.000000 
L_front_hand01_02 0.000000 0.000000 0.000000 0.000000 0.000000 0.000000 10.000000 
L_front_hand02_02 0.000000 0.000000 0.000000 0.000000 0.000000 0.000000 10.000000 
L_front_hand03_02 0.000000 0.000000 0.000000 0.000000 0.000000 0.000000 10.000000 
R_forearm 0.000000 0.000000 0.000000 0.000000 0.000000 0.000000 10.000000 
R_front_hand 0.000000 0.000000 0.000000 0.000000 0.000000 0.000000 10.000000 
R_weapon_bone 0.000000 0.000000 0.000000 0.000000 0.000000 0.000000 10.000000 
R_front_hand01_01 0.000000 0.000000 0.000000 0.000000 0.000000 0.000000 10.000000 
R_front_hand02_01 0.000000 0.000000 0.000000 0.000000 0.000000 0.000000 10.000000 
R_front_hand03_01 0.000000 0.000000 0.000000 0.000000 0.000000 0.000000 10.000000 
R_front_hand01_02 0.000000 0.000000 0.000000 0.000000 0.000000 0.000000 10.000000 
R_front_hand02_02 0.000000 0.000000 0.000000 0.000000 0.000000 0.000000 10.000000 
R_front_hand03_02 0.000000 0.000000 0.000000 0.000000 0.000000 0.000000 10.000000 
null_rope01_connect 0.000000 0.000000 0.000000 0.000000 0.000000 0.000000 10.000000 
Rope1_Seg01 0.000000 0.000000 0.000000 0.000000 0.000000 0.000000 10.000000 
Rope1_Seg02 0.000000 0.000000 0.000000 0.000000 0.000000 0.000000 10.000000 
Rope1_Seg03 0.000000 0.000000 0.000000 0.000000 0.000000 0.000000 10.000000 
Rope1_Seg04 0.000000 0.000000 0.000000 0.000000 0.000000 0.000000 10.000000 
Rope1_Seg05 0.000000 0.000000 0.000000 0.000000 0.000000 0.000000 10.000000 
Rope1_Seg06 0.000000 0.000000 0.000000 0.000000 0.000000 0.000000 10.000000 
Rope1_Seg07 0.000000 0.000000 0.000000 0.000000 0.000000 0.000000 10.000000 
Rope1_Seg09 0.000000 0.000000 0.000000 0.000000 0.000000 0.000000 10.000000 
L_mid_hand01 0.000000 0.000000 0.000000 0.000000 0.000000 0.000000 10.000000 
L_mid_hand02 0.000000 0.000000 0.000000 0.000000 0.000000 0.000000 10.000000 
L_mid_hand03 0.000000 0.000000 0.000000 0.000000 0.000000 0.000000 10.000000 
null_rope02_connect 0.000000 0.000000 0.000000 0.000000 0.000000 0.000000 10.000000 
Rope2_Seg01 0.000000 0.000000 0.000000 0.000000 0.000000 0.000000 10.000000 
Rope2_Seg02 0.000000 0.000000 0.000000 0.000000 0.000000 0.000000 10.000000 
Rope2_Seg03 0.000000 0.000000 0.000000 0.000000 0.000000 0.000000 10.000000 
Rope2_Seg04 0.000000 0.000000 0.000000 0.000000 0.000000 0.000000 10.000000 
Rope2_Seg05 0.000000 0.000000 0.000000 0.000000 0.000000 0.000000 10.000000 
Rope2_Seg06 0.000000 0.000000 0.000000 0.000000 0.000000 0.000000 10.000000 
Rope2_Seg07 0.000000 0.000000 0.000000 0.000000 0.000000 0.000000 10.000000 
Rope2_Seg09 0.000000 0.000000 0.000000 0.000000 0.000000 0.000000 10.000000 
R_mid_hand01 0.000000 0.000000 0.000000 0.000000 0.000000 0.000000 10.000000 
R_mid_hand02 0.000000 0.000000 0.000000 0.000000 0.000000 0.000000 10.000000 
R_mid_hand03 0.000000 0.000000 0.000000 0.000000 0.000000 0.000000 10.000000 
spine02 0.000000 0.000000 0.000000 0.000000 0.000000 0.000000 10.000000 
spine03 0.000000 0.000000 0.000000 0.000000 0.000000 0.000000 10.000000 
pelvis 0.000000 0.000000 0.000000 0.000000 0.000000 0.000000 10.000000 
null_rope03_connect 0.000000 0.000000 0.000000 0.000000 0.000000 0.000000 10.000000 
null_rope04_connect 0.000000 0.000000 0.000000 0.000000 0.000000 0.000000 10.000000 
Rope3_Seg01 0.000000 0.000000 0.000000 0.000000 0.000000 0.000000 10.000000 
Rope3_Seg02 0.000000 0.000000 0.000000 0.000000 0.000000 0.000000 10.000000 
Rope3_Seg03 0.000000 0.000000 0.000000 0.000000 0.000000 0.000000 10.000000 
Rope3_Seg04 0.000000 0.000000 0.000000 0.000000 0.000000 0.000000 10.000000 
Rope3_Seg05 0.000000 0.000000 0.000000 0.000000 0.000000 0.000000 10.000000 
Rope3_Seg06 0.000000 0.000000 0.000000 0.000000 0.000000 0.000000 10.000000 
Rope3_Seg07 0.000000 0.000000 0.000000 0.000000 0.000000 0.000000 10.000000 
Rope3_Seg08 0.000000 0.000000 0.000000 0.000000 0.000000 0.000000 10.000000 
Rope3_Seg09 0.000000 0.000000 0.000000 0.000000 0.000000 0.000000 10.000000 
R_rear_hand01 0.000000 0.000000 0.000000 0.000000 0.000000 0.000000 10.000000 
R_rear_hand02 0.000000 0.000000 0.000000 0.000000 0.000000 0.000000 10.000000 
R_rear_hand03 0.000000 0.000000 0.000000 0.000000 0.000000 0.000000 10.000000 
Rope4_Seg01 0.000000 0.000000 0.000000 0.000000 0.000000 0.000000 10.000000 
Rope4_Seg02 0.000000 0.000000 0.000000 0.000000 0.000000 0.000000 10.000000 
Rope4_Seg03 0.000000 0.000000 0.000000 0.000000 0.000000 0.000000 10.000000 
Rope4_Seg04 0.000000 0.000000 0.000000 0.000000 0.000000 0.000000 10.000000 
Rope4_Seg05 0.000000 0.000000 0.000000 0.000000 0.000000 0.000000 10.000000 
Rope4_Seg06 0.000000 0.000000 0.000000 0.000000 0.000000 0.000000 10.000000 
Rope4_Seg07 0.000000 0.000000 0.000000 0.000000 0.000000 0.000000 10.000000 
Rope4_Seg08 0.000000 0.000000 0.000000 0.000000 0.000000 0.000000 10.000000 
Rope4_Seg09 0.000000 0.000000 0.000000 0.000000 0.000000 0.000000 10.000000 
L_rear_hand01 0.000000 0.000000 0.000000 0.000000 0.000000 0.000000 10.000000 
L_rear_hand02 0.000000 0.000000 0.000000 0.000000 0.000000 0.000000 10.000000 
L_rear_hand03 0.000000 0.000000 0.000000 0.000000 0.000000 0.000000 10.000000 
#Beginning of Data. Separated by tabs
#Fr	Tx	Ty	Tz	Rx	Ry	Rz	SF
[MASTER]
3 0.000000 0.000000 0.000000 0.001660 0.001660 0.001660 0.000000
4 0.000000 0.000000 0.000000 0.001660 0.001660 0.001660 0.000000
[root]
3 65.273598 7.225462 637.701721 -88.581917 -10.449947 -90.639961 641.074341
4 106.741920 29.339130 727.011047 -88.581917 -10.449947 -90.639961 735.390808
[chest]
3 -84.512650 -34.090519 0.000000 -1.659926 3.589189 166.779800 91.129311
4 -84.512650 -34.090519 0.000000 -1.479444 3.524349 159.229752 91.129311
[L_mid_tent01]
3 27.299278 22.178503 -249.918533 -42.196819 48.322987 56.782360 252.381485
4 27.299273 22.178526 -249.918549 -43.729595 48.596989 48.119850 252.381500
[R_mid_tent01]
3 23.228794 24.509907 226.238495 -160.653366 -32.793098 85.418739 228.744751
4 23.228794 24.509907 226.238495 -166.973053 -31.229179 92.278038 228.744751
[spine01]
3 -0.361383 -0.195265 0.000000 0.001908 0.001367 18.767962 0.410763
4 -0.361383 -0.195265 0.000000 0.001909 0.001365 18.864538 0.410763
[Bip01_Neck]
3 165.484543 71.581718 0.000119 176.643677 -1.657967 43.431911 180.302734
4 165.484543 71.581718 0.000119 176.643677 -1.657967 43.431911 180.302734
[L_humerus]
3 -13.983130 -135.272980 -120.471481 139.085526 52.091084 -147.822037 181.680161
4 -13.983130 -135.272980 -120.471481 144.518402 47.816887 -148.121185 181.680161
[R_humerus]
3 -13.983309 -135.273102 125.287651 -164.970917 -63.997650 -155.290497 184.909012
4 -13.983309 -135.273102 125.287651 -169.864395 -59.029556 -153.382248 184.909012
[weapon_bone]
3 235.964890 -300.705902 0.000000 0.000000 -89.951546 -128.212341 382.234833
4 235.964890 -300.705902 0.000000 0.000000 -89.951546 -128.212341 382.234833
[Bip01_Head]
3 213.341324 186.002380 8.073768 0.090337 6.326123 -27.198717 283.154694
4 213.352432 185.971710 8.470232 -1.465253 8.510068 -33.423149 283.154510
[eye_left_bone]
3 -24.626970 125.451866 -64.772606 0.000000 -90.000000 -99.840431 143.318359
4 -24.626970 125.451866 -64.772606 0.000000 -90.000000 -99.840431 143.318359
[eye_right_bone]
3 -24.626970 125.451866 64.327362 0.000000 -89.972023 80.156387 143.117676
4 -24.626970 125.451866 64.327362 0.000000 -89.965736 80.156380 143.117676
[L_forearm]
3 322.776093 0.000000 -0.000119 0.000163 -0.002342 -97.981750 322.776093
4 322.776093 0.000000 -0.000119 0.000144 0.002343 -82.952126 322.776093
[L_front_hand]
3 241.149185 -0.042021 -3.300071 176.744049 -1.835291 -27.424454 241.171753
4 241.149185 -0.042021 -3.300071 174.384857 -1.836603 -27.424185 241.171753
[L_weapon_bone]
3 156.183838 0.000000 0.000000 0.000014 0.000007 0.000001 156.183838
4 156.183838 0.000000 0.000000 0.000014 0.000007 0.000001 156.183838
[L_front_hand01_01]
3 86.095154 20.947098 -0.655860 -0.366594 -0.477154 75.385574 88.609184
4 86.095154 20.947098 -0.655860 -0.366594 -0.477154 75.385574 88.609184
[L_front_hand02_01]
3 86.935165 -11.437475 24.513514 154.399796 -59.883820 -61.369564 91.046425
4 86.935165 -11.437475 24.513514 154.399796 -59.883835 -61.369587 91.046425
[L_front_hand03_01]
3 86.637497 -14.123976 -20.424902 -153.913849 58.118122 -62.702866 90.126129
4 86.637497 -14.123976 -20.424902 -153.913849 58.118107 -62.702850 90.126129
[L_front_hand01_02]
3 71.020905 -0.000179 0.000030 0.000334 -0.002323 -106.379684 71.020905
4 71.020905 -0.000179 0.000030 0.000334 -0.002323 -106.379684 71.020905
[L_front_hand02_02]
3 71.020927 -0.000119 0.000060 0.000334 -0.002323 -106.379684 71.020927
4 71.020927 -0.000119 0.000060 0.000334 -0.002323 -106.379684 71.020927
[L_front_hand03_02]
3 71.020905 -0.000060 0.000060 0.000334 -0.002323 -106.379684 71.020905
4 71.020905 -0.000060 0.000060 0.000334 -0.002323 -106.379684 71.020905
[R_forearm]
3 322.776428 -0.000060 0.000030 0.209279 -0.019143 -85.897133 322.776428
4 322.776428 -0.000060 0.000030 0.196017 -0.088184 -66.604988 322.776428
[R_front_hand]
3 238.847015 -0.006795 2.210259 -58.981308 -10.643918 -26.311821 238.857239
4 238.847015 -0.006795 2.210259 -87.154091 -10.644065 -26.313898 238.857239
[R_weapon_bone]
3 155.664093 0.002503 -0.000030 0.003487 0.001180 -90.988930 155.664078
4 155.664093 0.002503 -0.000030 0.003487 0.001180 -90.988930 155.664078
[R_front_hand01_01]
3 87.624611 14.231146 22.918642 -154.633499 -59.950619 61.746044 91.683487
4 87.624611 14.231146 22.918642 -154.633499 -59.950619 61.746044 91.683487
[R_front_hand02_01]
3 89.356956 14.367283 -19.491137 154.602661 58.302849 63.744389 92.579636
4 89.356956 14.367283 -19.491137 154.602661 58.302849 63.744389 92.579636
[R_front_hand03_01]
3 87.286232 -22.307278 -0.143439 0.162155 -0.423168 -75.767906 90.091743
4 87.286232 -22.307278 -0.143439 0.162155 -0.423168 -75.767921 90.091743
[R_front_hand01_02]
3 71.020905 0.000060 0.000119 0.002323 -0.000334 106.381706 71.020905
4 71.020905 0.000060 0.000119 0.002323 -0.000334 106.381714 71.020905
[R_front_hand02_02]
3 71.020844 -0.000030 -0.000119 0.002323 -0.000334 106.381706 71.020836
4 71.020844 -0.000030 -0.000119 0.002323 -0.000334 106.381714 71.020836
[R_front_hand03_02]
3 71.020905 0.000000 0.000030 0.002323 -0.000334 106.381706 71.020905
4 71.020905 0.000000 0.000030 0.002323 -0.000334 106.381714 71.020905
[null_rope01_connect]
3 328.732483 0.000000 -0.000238 173.284637 -30.938271 -149.376404 328.732483
4 328.732483 0.000000 -0.000238 -179.335938 -29.937813 -149.092743 328.732483
[Rope1_Seg01]
3 -0.000032 -0.000065 0.000008 119.262863 -35.257008 147.180099 0.000073
4 -0.000029 -0.000064 0.000013 115.856918 -17.391554 145.464233 0.000072
[Rope1_Seg02]
3 139.999863 -0.000179 0.000000 -3.095534 -10.389627 -9.156550 139.999863
4 139.999863 -0.000179 0.000000 -1.351436 -7.973789 -12.742501 139.999863
[Rope1_Seg03]
3 139.999924 0.000060 -0.000060 -3.216753 -22.985502 -24.336302 139.999924
4 139.999924 0.000060 -0.000060 1.749272 -14.240589 -23.638113 139.999924
[Rope1_Seg04]
3 139.999924 -0.000060 -0.000119 1.522371 -23.951660 -32.268600 139.999924
4 139.999924 -0.000060 -0.000119 5.668777 -15.009768 -24.478664 139.999924
[Rope1_Seg05]
3 139.999832 0.000119 -0.000060 0.711576 -5.948349 -14.829724 139.999832
4 139.999832 0.000119 -0.000060 3.264424 -1.151070 -16.635073 139.999832
[Rope1_Seg06]
3 139.999954 0.000119 -0.000060 3.182923 -2.040039 -20.591652 139.999954
4 139.999954 0.000119 -0.000060 6.391335 1.242342 -19.335955 139.999954
[Rope1_Seg07]
3 139.999985 0.000060 0.000000 8.551066 -5.268064 -20.478033 139.999985
4 139.999985 0.000060 0.000000 9.996795 -2.722932 -14.140502 139.999985
[Rope1_Seg09]
3 121.602913 0.000119 -0.000089 -89.793175 -1.359789 0.847147 121.602913
4 121.602913 0.000119 -0.000089 -89.793175 -1.359789 0.847147 121.602913
[L_mid_hand01]
3 103.859421 1.038730 8.195221 109.056206 -40.604694 -13.201402 104.187431
4 103.859421 1.038730 8.195221 109.056198 -40.604702 -13.201401 104.187431
[L_mid_hand02]
3 105.572853 -4.139662 -10.864139 -146.713593 31.476524 -37.902313 106.211075
4 105.572853 -4.139662 -10.864139 -146.713593 31.476528 -37.902313 106.211075
[L_mid_hand03]
3 104.641464 17.579376 -3.913581 -14.267231 12.322313 43.898392 106.179977
4 104.641464 17.579376 -3.913581 -14.267233 12.322316 43.898396 106.179977
[null_rope02_connect]
3 328.732849 0.000179 -0.000119 162.168213 51.041309 -27.105589 328.732849
4 328.732849 0.000179 -0.000119 164.152405 54.977100 -20.375135 328.732849
[Rope2_Seg01]
3 -0.000031 0.000078 0.000108 -43.861221 -23.523333 35.724751 0.000137
4 -0.000027 0.000079 0.000105 -50.250481 11.443195 23.474245 0.000134
[Rope2_Seg02]
3 139.999741 -0.000060 -0.000119 -0.096072 5.928791 11.435873 139.999756
4 139.999741 -0.000060 -0.000119 -16.375027 33.897758 48.377552 139.999756
[Rope2_Seg03]
3 140.000107 0.000030 0.000000 10.908866 28.481167 64.720200 140.000107
4 140.000107 0.000030 0.000000 -12.397862 7.605160 53.428181 140.000107
[Rope2_Seg04]
3 139.999802 0.000000 -0.000060 1.640782 9.719658 43.817215 139.999802
4 139.999802 0.000000 -0.000060 -1.708387 -16.697895 17.580654 139.999802
[Rope2_Seg05]
3 139.999985 -0.000060 0.000119 1.058960 -8.854958 20.366854 139.999985
4 139.999985 -0.000060 0.000119 1.578952 -9.216236 10.194818 139.999985
[Rope2_Seg06]
3 139.999893 -0.000030 -0.000119 3.625889 -2.021791 11.562820 139.999893
4 139.999893 -0.000030 -0.000119 1.987513 -4.087591 5.580490 139.999893
[Rope2_Seg07]
3 139.999893 0.000060 -0.000060 2.460072 -0.631617 5.956750 139.999893
4 139.999893 0.000060 -0.000060 1.418342 -2.120314 3.131946 139.999893
[Rope2_Seg09]
3 121.338966 0.000089 -0.000060 33.793236 -1.359788 -0.847141 121.338966
4 121.338966 0.000089 -0.000060 33.793236 -1.359788 -0.847141 121.338966
[R_mid_hand01]
3 104.680779 11.144459 -10.335981 -37.204067 31.906805 37.576260 105.778534
4 104.680779 11.144459 -10.335981 -37.204079 31.906813 37.576260 105.778534
[R_mid_hand02]
3 104.070427 2.443552 8.231699 70.367462 -42.427391 14.067809 104.424065
4 104.070427 2.443552 8.231699 70.367462 -42.427391 14.067809 104.424065
[R_mid_hand03]
3 106.028137 -11.221827 -5.996406 -169.893616 12.226658 -47.211018 106.788818
4 106.028137 -11.221827 -5.996406 -169.893616 12.226658 -47.211018 106.788818
[spine02]
3 129.756927 0.001550 0.000119 -0.360436 -4.042450 -2.750409 129.756927
4 129.756927 0.001550 0.000119 -0.339339 -4.044411 -3.049778 129.756927
[spine03]
3 78.613991 0.083841 -4.898953 1.464537 4.015324 10.146531 78.766525
4 78.613991 0.083780 -4.898954 1.477473 4.010622 10.332787 78.766525
[pelvis]
3 169.435242 0.051022 0.000000 -0.016596 -0.190792 1.284650 169.435257
4 169.435242 0.051022 0.000000 -0.017863 -0.190594 1.661707 169.435257
[null_rope03_connect]
3 -1.257226 -2.466202 137.391083 -12.528337 -88.173401 85.591675 137.418976
4 -1.257226 -2.466202 137.391083 -12.342681 -88.152733 85.044609 137.418976
[null_rope04_connect]
3 -1.259640 -2.480268 -137.844437 -12.528337 -88.173401 85.591675 137.872513
4 -1.259640 -2.480268 -137.844437 -12.342681 -88.152733 85.044609 137.872513
[Rope3_Seg01]
3 0.000010 0.000038 -0.000114 -151.051895 -26.090233 -32.386047 0.000121
4 0.000010 0.000038 -0.000114 -134.626633 -10.962224 -28.296343 0.000121
[Rope3_Seg02]
3 139.999924 -0.000119 0.000060 15.133066 -12.480552 12.323079 139.999924
4 139.999924 -0.000119 0.000060 11.744459 -5.072545 19.613890 139.999924
[Rope3_Seg03]
3 139.999924 -0.000119 0.000119 11.611198 -10.986236 20.823370 139.999924
4 139.999924 -0.000119 0.000119 3.683884 3.137170 16.883890 139.999924
[Rope3_Seg04]
3 139.999924 0.000119 0.000000 4.726012 -5.357372 20.215239 139.999924
4 139.999924 0.000119 0.000000 2.020469 -2.116879 22.586601 139.999924
[Rope3_Seg05]
3 139.999924 -0.000238 0.000060 -1.028009 -7.113283 31.488838 139.999924
4 139.999924 -0.000238 0.000060 -5.253687 -8.487588 27.731659 139.999924
[Rope3_Seg06]
3 139.999893 -0.000119 -0.000060 -5.012904 -4.549733 20.410135 139.999893
4 139.999893 -0.000119 -0.000060 -3.096239 -3.634574 10.086771 139.999893
[Rope3_Seg07]
3 139.999771 0.000060 -0.000119 -2.950689 -2.424745 8.240911 139.999771
4 139.999771 0.000060 -0.000119 -1.484389 -1.802886 4.770267 139.999771
[Rope3_Seg08]
3 139.999985 -0.000060 0.000000 -1.554750 -1.437054 4.127651 139.999985
4 139.999985 -0.000060 0.000000 -0.675343 -1.056539 2.599800 139.999985
[Rope3_Seg09]
3 90.185997 -0.000179 -0.000060 89.793228 -1.359877 -0.847183 90.185997
4 90.185997 -0.000179 -0.000060 89.793228 -1.359877 -0.847183 90.185997
[R_rear_hand01]
3 103.366196 -6.073594 -10.757982 -164.755127 19.627697 -40.352161 104.101845
4 103.366196 -6.073594 -10.757982 -164.755127 19.627697 -40.352165 104.101845
[R_rear_hand02]
3 100.509819 12.039542 -7.992327 -30.792652 24.782448 38.141541 101.543350
4 100.509819 12.039542 -7.992327 -30.792652 24.782448 38.141541 101.543350
[R_rear_hand03]
3 101.539970 5.215704 5.435467 82.448334 -41.048244 8.840382 101.819031
4 101.539970 5.215704 5.435467 82.448349 -41.048256 8.840378 101.819031
[Rope4_Seg01]
3 -0.000019 -0.000072 -0.000153 53.792683 -11.636829 -151.076904 0.000170
4 -0.000018 -0.000070 -0.000153 52.964947 -11.292024 -157.085922 0.000169
[Rope4_Seg02]
3 139.999985 0.000060 0.000119 -11.706183 6.570021 -8.416904 139.999985
4 139.999985 0.000060 0.000119 -11.727374 8.440211 -6.252541 139.999985
[Rope4_Seg03]
3 139.999924 0.000000 -0.000238 -11.982827 10.327344 -9.195331 139.999924
4 139.999924 0.000000 -0.000238 -9.823833 11.903020 -5.612529 139.999924
[Rope4_Seg04]
3 139.999985 0.000000 0.000119 -8.937389 10.480534 -8.232252 139.999985
4 139.999985 0.000000 0.000119 -5.162829 12.056098 -2.679638 139.999985
[Rope4_Seg05]
3 139.999802 -0.000060 -0.000119 -4.962256 14.709593 -3.889001 139.999802
4 139.999802 -0.000060 -0.000119 -3.857585 13.091308 -3.031418 139.999802
[Rope4_Seg06]
3 139.999924 0.000000 0.000060 -1.154798 33.684666 -0.218697 139.999924
4 139.999924 0.000000 0.000060 -3.703979 23.915150 -6.374212 139.999924
[Rope4_Seg07]
3 139.999802 0.000000 0.000000 5.872062 28.298012 -0.396133 139.999802
4 139.999802 0.000000 0.000000 1.799129 23.727112 -5.070852 139.999802
[Rope4_Seg08]
3 139.999924 0.000000 0.000119 4.481653 12.239648 -1.608364 139.999924
4 139.999924 0.000000 0.000119 2.026097 12.311020 -3.053884 139.999924
[Rope4_Seg09]
3 90.185791 0.000060 0.000060 -135.617828 2.228885 0.850567 90.185791
4 90.185791 0.000060 0.000060 -135.617828 2.228885 0.850567 90.185791
[L_rear_hand01]
3 101.696655 -8.392275 -7.654577 -31.684456 -23.583012 144.025742 102.329041
4 101.696655 -8.392275 -7.654577 -31.684452 -23.583008 144.025742 102.329041
[L_rear_hand02]
3 102.726799 -1.568258 5.773216 82.701553 38.753956 171.553619 102.900848
4 102.726799 -1.568258 5.773216 82.701553 38.753956 171.553619 102.900848
[L_rear_hand03]
3 104.552910 9.721220 -10.420293 -163.975388 -19.004416 -142.009323 105.519653
4 104.552910 9.721220 -10.420293 -163.975403 -19.004421 -142.009338 105.519653
